<svg version="1.1" id="Layer_1" xmlns="http://www.w3.org/2000/svg" xmlns:xlink="http://www.w3.org/1999/xlink" x="0px" y="0px"
	 width="100%" viewBox="0 0 304 304" enable-background="new 0 0 304 304" xml:space="preserve">
<path fill="#000000" opacity="1.000000" stroke="none" 
	d="
M24.727497,264.845825 
	C51.238174,187.504349 77.674675,110.554108 103.956657,33.551117 
	C105.489380,29.060408 107.627937,27.473995 112.446014,27.523235 
	C137.274582,27.776981 162.107117,27.633038 186.938202,27.667561 
	C188.884399,27.670265 190.937759,27.235594 192.748032,28.449478 
	C193.408707,30.412624 192.376205,32.069229 191.802994,33.753311 
	C179.897018,68.733673 167.910721,103.686829 156.091507,138.696411 
	C154.853027,142.364883 152.876495,143.473022 149.161057,143.435379 
	C132.664169,143.268173 116.162880,143.487885 99.667435,143.259918 
	C95.501236,143.202347 93.576523,144.452835 92.200073,148.526764 
	C77.286949,192.665863 62.085777,236.707672 47.174351,280.847351 
	C45.554272,285.643005 43.541729,287.959991 38.092987,287.496613 
	C31.529589,286.938477 24.882498,287.364532 17.183603,287.364532 
	C19.892702,279.298523 22.256037,272.261963 24.727497,264.845825 
M138.924194,108.531479 
	C145.475296,89.434151 152.026413,70.336830 158.872345,50.380096 
	C148.853043,50.380096 139.906845,50.563610 130.974289,50.294678 
	C127.107292,50.178257 125.397911,51.681168 124.230507,55.203976 
	C119.373032,69.862015 114.265594,84.437111 109.272163,99.050255 
	C107.035683,105.595268 104.851776,112.158241 102.327103,119.653984 
	C110.144264,119.653984 117.063492,119.747932 123.979301,119.634056 
	C137.574158,119.410217 134.028717,121.671532 138.924194,108.531479 
z"/>
<path fill="#000000" opacity="1.000000" stroke="none" 
	d="
M87.591827,258.688232 
	C97.711098,229.053101 107.757584,199.804596 117.743866,170.535568 
	C118.715622,167.687439 119.646637,165.566376 123.426094,165.586563 
	C150.061539,165.728912 176.698090,165.660889 203.334290,165.676620 
	C204.140579,165.677094 204.946777,165.859299 205.676819,165.947556 
	C207.055634,168.218887 205.632324,170.024567 205.033295,171.775314 
	C192.383484,208.746796 179.642746,245.687149 166.980881,282.654510 
	C165.982224,285.570190 164.874557,287.456848 161.176193,287.435760 
	C134.873779,287.285553 108.570114,287.358337 82.266853,287.342194 
	C81.293114,287.341614 80.319489,287.156097 78.375267,286.957733 
	C80.824951,277.225006 84.384445,268.211731 87.591827,258.688232 
M125.532593,263.651978 
	C130.692520,263.650482 135.864914,263.428925 141.008224,263.720428 
	C144.800934,263.935425 146.619003,262.541016 147.832596,258.930725 
	C155.089706,237.341537 162.567123,215.826431 169.964951,194.284531 
	C170.444717,192.887466 171.103271,191.506516 170.436050,189.346848 
	C161.994812,189.346848 153.377151,189.618561 144.788452,189.237411 
	C140.180496,189.032913 138.021713,190.504150 136.570374,194.951950 
	C130.897812,212.336426 124.779503,229.574951 118.920021,246.899246 
	C117.130493,252.190201 114.803047,257.340515 113.821884,263.650665 
	C117.669144,263.650665 121.110191,263.650665 125.532593,263.651978 
z"/>
<path fill="#000000" opacity="1.000000" stroke="none" 
	d="
M225.174896,208.314880 
	C232.178833,187.980423 239.142410,168.047928 245.789963,148.010605 
	C247.196960,143.769592 249.348236,142.331451 253.713654,142.557861 
	C260.455750,142.907516 267.229340,142.650009 274.210571,142.650009 
	C273.902100,147.323318 272.190491,150.788818 270.974121,154.346222 
	C256.399017,196.973221 241.686478,239.553329 227.182541,282.204407 
	C225.810242,286.239899 223.776367,287.634277 219.615997,287.441559 
	C212.852280,287.128174 206.063431,287.357025 198.094238,287.357025 
	C207.306686,260.439941 216.164276,234.559708 225.174896,208.314880 
z"/>
<path fill="#000000" opacity="1.000000" stroke="none" 
	d="
M285.169739,113.042542 
	C284.239410,119.502617 280.556671,120.928673 274.884705,120.471252 
	C268.815674,119.981812 262.676605,120.360901 255.443451,120.360901 
	C258.497742,111.432655 261.198029,103.473961 263.959625,95.536583 
	C264.374603,94.343849 265.418152,93.743103 266.699860,93.741302 
	C274.641876,93.730141 282.583862,93.735687 291.243439,93.735687 
	C289.877747,100.736908 287.226837,106.598236 285.169739,113.042542 
z"/>
</svg>